<svg width="677" height="639" viewBox="0 0 677 639" fill="none" xmlns="http://www.w3.org/2000/svg">
<path fill-rule="evenodd" clip-rule="evenodd" d="M336.195 8.50823C424.551 3.70301 513.317 33.0057 576.458 94.9929C640.121 157.493 669.214 246.022 668.999 335.232C668.784 424.212 641.992 515.401 575.3 574.313C511.59 630.592 421.032 634.664 336.195 629.214C257.934 624.186 184.371 597.768 125.961 545.444C63.7444 489.711 9.04309 418.749 8.0147 335.232C6.9773 250.982 61.0062 179.226 120.719 119.778C180.271 60.4905 252.282 13.0718 336.195 8.50823Z" fill="white" stroke="black" stroke-width="15"/>
<path fill-rule="evenodd" clip-rule="evenodd" d="M506.529 340.003C504.376 321.088 507.162 281.552 507.349 279.15C508.529 263.965 501.414 204.002 487.964 209.527C465.402 191.666 435.351 187.722 407.251 185.838C348.884 181.924 286.791 190.909 241.721 230.189C219.432 250.588 197.733 280.257 199.477 311.149C179.226 340.431 150.677 380.598 175.909 414.831C184.485 425.768 198.117 429.841 208.891 438.124C230.563 455.604 244.159 480.69 266.036 498.066C323.997 550.149 422.414 561.029 479.36 501.789C523.395 458.885 516.275 394.699 508.529 340.003C503.322 303.23 510.729 376.904 506.529 340.003Z" fill="#FFDACE"/>
<path fill-rule="evenodd" clip-rule="evenodd" d="M329.28 105.625C344.89 102.475 360.919 100.515 376.86 101.105L378.089 101.153C390.083 101.632 405.273 102.693 415.736 109.667C416.338 109.063 417.306 108.753 418.184 109.172C430.618 115.107 444.294 119.398 457.386 123.662C470.418 127.905 483.938 130.706 497.597 131.835C502.736 132.26 507.134 137.809 503.88 142.786C503.106 143.972 502.352 145.17 501.601 146.371C502.857 146.24 504.113 146.105 505.369 145.978C509.502 145.562 513.631 149.973 513.386 153.997C513.233 156.528 512.96 159.029 512.556 161.5C514.13 161.467 515.695 161.703 517.207 162.342C524.863 165.575 524.33 174.694 523.757 181.632C522.963 191.26 519.362 201.458 512.676 208.664C517.668 213.849 521.202 220.041 523.31 227.395C524.839 232.765 525.69 238.485 525.27 244.075L525.136 245.749C524.617 251.815 523.584 258.531 519.22 262.895C516.98 265.145 514.22 265.965 511.589 265.705C513.18 279.685 514.2 293.745 515.16 307.755L515.61 314.451C517.752 346.831 519.361 379.422 518.94 411.855C518.549 442.165 512.56 471.585 493.97 496.195C477.039 518.605 452.73 535.125 425.23 541.405C410.41 544.795 395.28 545.035 380.28 542.875C373.009 541.825 365.69 540.215 358.789 537.675C351.15 534.855 345.66 530.705 340.52 524.485C338.089 521.535 339.259 515.255 344.1 515.845C351.421 516.733 358.105 517.803 365.124 519.968L366.129 520.285C373.12 522.525 380.36 524.195 387.669 524.905C402.64 526.355 417.839 524.895 432.18 520.355C455.53 512.955 475.64 496.465 488.53 475.745C503.83 451.185 505.56 423.305 505.339 395.065C505.102 364.077 504.094 333.07 502.449 302.114L502.169 296.955C501.299 281.025 500.459 265.085 499.72 249.145C499.49 244.145 499.14 239.105 498.509 234.115C492.74 230.735 487.57 226.075 484.2 220.325C477.43 223.125 470.31 225.145 463.759 226.755C448.585 230.487 432.831 231.393 417.386 229.056C413.22 230.777 408.971 232.29 404.657 233.592C403.491 234.109 402.325 234.617 401.16 235.115C390.759 239.565 380.209 243.335 369.23 246.095L366.533 246.768C360.755 248.192 354.479 249.595 348.33 250.035C347.32 250.425 346.23 250.755 345.039 251.045C339.44 252.405 333.629 252.835 327.89 252.355C322.299 251.885 318.259 246.235 321.339 240.945C323.589 237.085 325.86 233.235 328.15 229.395C320.18 232.715 311.95 235.475 303.65 237.815C295.27 240.175 286.77 242.165 278.259 243.995C273.709 244.965 269.14 245.825 264.6 246.795C261.35 247.485 256.36 247.845 253.709 249.985C250.78 252.335 249.95 257.815 248.839 261.195C247.379 265.585 246.009 269.995 244.759 274.455C242.27 283.355 240.23 292.385 238.65 301.505C237.07 310.635 236.009 319.855 235.419 329.105C234.83 338.345 235.089 347.645 234.14 356.845C233.629 361.725 228.39 364.235 224.52 360.825C224.066 360.425 223.608 360.021 223.155 359.612L222.48 358.995C219.169 355.995 215.959 352.815 213.31 349.235C212.83 348.575 212.37 347.885 211.94 347.185C211.87 347.185 211.81 347.165 211.74 347.115L211.006 346.562C202.918 340.543 189.406 332.694 181.52 342.695C179.007 345.881 177.72 349.938 176.653 353.851L174.779 360.856C173.567 365.428 172.426 370.026 171.759 374.705C170.249 385.185 171.009 397.265 178.22 405.665C181.1 409.025 185.07 411.425 189.499 412.055C191.97 412.395 194.41 411.975 196.86 411.665C199.35 411.355 201.749 411.855 204.24 411.615C208.2 411.225 209.93 415.965 208.45 418.945C207.65 420.545 206.709 421.925 205.64 423.095C206.499 423.835 207.32 424.635 208.11 425.475C210.45 426.225 212.549 427.835 214.12 429.965C215.39 431.685 216.049 433.555 216.16 435.525C216.299 436.015 216.419 436.515 216.53 437.025L218.675 440.507C219.147 441.271 219.617 442.025 220.089 442.765C225.549 451.365 231.61 458.645 239.14 465.505C246.39 472.105 254.259 478.015 261.07 485.095L261.872 485.936C268.222 492.627 274.915 500.726 272.43 510.455C271.79 512.955 268.299 514.755 266.02 513.065C258.69 507.625 254.999 499.005 248.78 492.405C242.379 485.605 235.289 479.495 228.87 472.715C222.799 466.315 218.009 459.065 214.4 451.085C212.959 452.675 210.86 453.805 207.95 454.245C202.95 454.995 198.289 452.065 196.11 447.735C194.709 448.355 193.28 448.915 191.839 449.355C184.259 451.675 179.49 443.245 182.35 437.015C183.879 433.675 185.789 430.775 188.16 428.335C180.749 427.315 173.209 423.485 168.339 418.705C156.12 406.695 154.44 388.645 157.19 372.595C158.65 364.085 161.169 355.475 164.44 347.485C165.009 346.095 165.62 344.695 166.289 343.315C165.919 343.305 165.539 343.145 165.299 342.835C163.089 339.815 160.4 337.345 158.759 333.965C157.249 330.865 155.57 327.725 154.379 324.495C151.93 317.885 150.73 310.425 149.93 303.435C148.28 289.125 148.919 274.905 151.11 260.685C154.839 236.465 163.847 213.287 177.118 192.949C176.395 192.569 175.703 192.111 175.058 191.569L174.739 191.291L174.221 190.823C170.434 187.396 170.761 180.973 174.221 177.502L175.314 176.407C176.698 175.032 177.891 173.943 180.126 172.446C180.456 172.225 180.793 172.017 181.134 171.823C179.964 169.661 179.558 167.133 180.373 164.344C183.213 154.628 197.193 154.972 206.054 159.209C215.857 150.46 226.727 142.865 238.509 136.715C266.57 122.075 298.299 111.865 329.28 105.625ZM184.23 361.525C189.47 359.815 196.43 363.405 201.14 365.565C207.11 368.305 212.19 372.355 217.11 376.635C219.56 378.775 219.999 382.275 219.39 385.265C219.329 385.565 219.27 385.875 219.199 386.185C218.549 389.375 214.989 391.885 211.839 391.795C205.249 391.615 202.11 385.925 198.379 381.105C197.94 381.885 197.39 382.605 196.709 383.145L196.249 383.505C194.701 384.684 192.995 385.626 190.949 385.535C189.499 385.465 188.11 385.095 186.829 384.425C183.629 382.735 182.22 378.595 183.089 375.225C183.629 373.105 184.869 371.445 186.489 370.295L185.885 369.882C184.593 368.983 183.415 368.035 182.497 366.636L182.289 366.305H182.369C181.369 364.585 182.02 362.245 184.23 361.525Z" fill="black"/>
<path fill-rule="evenodd" clip-rule="evenodd" d="M350.832 427.757C358.834 411.757 432.223 418.949 432.223 418.949L438.422 469.807C438.422 469.807 403.011 481.19 381.933 478.805C360.854 476.42 342.83 443.757 350.832 427.757Z" fill="white"/>
<path fill-rule="evenodd" clip-rule="evenodd" d="M356.003 454.471C353.468 449.047 405.934 434.256 422.178 444.364C438.422 454.471 433.343 468.256 433.343 468.256C433.343 468.256 365.021 483.84 356.003 454.471Z" fill="#FF8181"/>
<path fill-rule="evenodd" clip-rule="evenodd" d="M346.281 418.29C358.527 404.06 379.152 403.069 396.237 406.627C407.201 408.911 417.876 412.715 429.012 414.125C434.213 414.784 439.47 414.981 444.709 414.884C449.855 414.789 455.009 413.752 460.137 413.945C460.925 413.974 461.223 415.009 460.54 415.43C453.505 419.751 444.028 421.137 435.718 421.982C435.744 422.597 435.781 423.197 435.866 423.706C436.093 425.063 436.3 426.411 436.467 427.777C436.844 430.858 437.266 433.929 437.687 437.004C438.517 443.055 438.778 449.298 440.237 455.245L440.492 456.234C440.83 457.484 440.907 458.611 440.794 459.627L441.132 459.474L442.199 458.957L442.899 458.626C445.453 457.442 447.89 456.58 450.893 456.868C453.179 457.086 455.098 458.645 455.112 461.086C455.169 472.041 440.405 475.564 431.96 477.661L429.483 478.271C418.734 480.893 407.758 483.191 396.703 483.741C378.961 484.622 359.024 479.728 347.418 465.337C336.589 451.91 334.604 431.858 346.281 418.29ZM426.852 464.318C424.99 447.824 404.722 446.917 398.891 457.377C396.304 442.798 358.028 456.117 361.021 459.015C372.365 470.001 389.58 470.99 404.379 468.958C411.916 467.923 419.459 466.238 426.852 464.318ZM404.358 421.088L399.262 420.355L397.255 420.078C384.623 418.387 370.416 417.513 360.03 425.612C356.238 428.568 354.104 432.424 353.307 436.566C363.135 435.109 372.998 433.998 382.891 433.073L385.59 432.825C391.78 432.267 397.967 431.679 404.151 431.062L408.546 430.617L412.939 430.161C414.485 429.999 424.904 429.466 426.863 429.824C427.072 428.064 427.345 424.255 427.787 422.542C420.385 422.793 413.015 422.243 405.656 421.265L404.358 421.088ZM427.814 347.367C435.366 351.957 446.872 362.66 438.748 374.04C429.186 384.073 415.419 372.569 408.634 367.366C402.343 363.334 395.275 373.705 401.112 378.413C450.136 414.708 470.031 348.567 431.634 341.97C427.406 341.243 425.836 345.947 427.814 347.367ZM441.328 366.704L441.691 366.507L441.814 366.432C442.026 366.295 441.891 366.31 441.408 366.477L441.046 366.607V366.863C441.139 366.806 441.238 366.763 441.328 366.704ZM344.617 325.924L344.616 325.699C344.63 319.322 348.344 304.762 357.524 304.762C363.259 304.762 366.741 314.671 367.344 324.886L367.365 325.302C367.631 331.653 365.888 345.534 357.524 345.534C349.072 345.534 344.704 332.387 344.617 325.924V325.924ZM479.773 323.924L479.774 323.699C479.76 317.322 476.046 302.762 466.866 302.762C461.274 302.762 457.824 312.182 457.097 322.12L457.046 322.886C456.684 329.022 458.314 343.534 466.866 343.534C475.318 343.534 479.686 330.387 479.773 323.924V323.924ZM349.855 261.285C357.347 260.146 367.268 262.31 370.761 269.928C372.317 273.322 370.474 277.075 366.551 277.263C357.07 277.717 348.567 275.607 340.245 281.772C336.664 284.425 333.653 288.1 331.126 291.764L330.17 293.159L329.378 294.308C327.662 296.831 326.037 299.571 326.291 302.615C326.366 303.516 325.445 304.371 324.57 304.335C319.116 304.111 318.529 297.273 319.246 293.166C320.58 285.544 324.269 278.389 329.382 272.626C334.752 266.574 341.841 262.504 349.855 261.285ZM453.044 270.535C458.21 267.214 464.818 265.938 470.87 266.427C482.803 267.388 502.822 277.532 500.187 292.107C499.374 296.602 493.122 298.974 489.438 296.48C485.477 293.799 484.513 289.632 481.565 286.128C479.213 283.329 476.232 281.304 473.04 279.579C469.894 277.878 466.254 276.847 462.684 276.471L462.089 276.414C459.94 276.231 449.088 276.28 450.681 280.331C450.993 281.124 449.813 281.752 449.271 281.152C445.944 277.472 449.712 272.677 453.044 270.535Z" fill="black"/>
</svg>
